<?xml version="1.0" encoding="utf-8"?>
<!-- Generator: Adobe Illustrator 17.0.0, SVG Export Plug-In . SVG Version: 6.00 Build 0)  -->
<!DOCTYPE svg PUBLIC "-//W3C//DTD SVG 1.1//EN" "http://www.w3.org/Graphics/SVG/1.1/DTD/svg11.dtd">
<svg version="1.1" id="Layer_1" xmlns="http://www.w3.org/2000/svg" xmlns:xlink="http://www.w3.org/1999/xlink" x="0px" y="0px"
	 width="493.875px" height="124.938px" viewBox="0 0 493.875 124.938" enable-background="new 0 0 493.875 124.938"
	 xml:space="preserve">
<g>
	<path fill="#cbcbcb" d="M216.812,73.721c0-13.752,0.547-20.175,7.06-20.175c6.419,0,7.136,6.423,7.136,20.175
		c0,13.753-0.717,20.255-7.136,20.255C217.359,93.976,216.812,87.474,216.812,73.721 M249.646,73.721
		c0-14.024-10.218-23.513-25.775-23.513c-15.559,0-25.689,9.398-25.689,23.513c0,14.106,10.129,23.59,25.689,23.59
		C239.428,97.311,249.646,87.735,249.646,73.721"/>
	<path fill="#cbcbcb" d="M278.039,53.175c4.711,0,6.416,3.993,6.416,12.587c0,8.307-1.705,12.119-6.416,12.119
		c-4.701,0-6.424-3.812-6.424-12.213C271.615,57.168,273.156,53.175,278.039,53.175 M263.113,101.205
		c1.637,0.554,3.258,0.81,4.801,0.81c7.045,0,12.568-3.063,16.447-3.063c3.35,0,5.436,1.805,5.436,4.517
		c0,4.16-4.699,7.412-12.934,7.412c-8.867,0-14.107-4.156-14.107-8.043C262.756,102.374,262.854,101.834,263.113,101.205
		 M254.348,89.456c0,4.164,1.723,7.502,4.881,9.672c-1.988,1.539-2.887,3.355-2.887,5.619c0,5.771,7.045,9.758,20.25,9.758
		c15.918,0,25.398-7.423,25.398-17.999c0-8.324-5.949-14.204-14.912-14.204c-4.328,0-8.229,1.362-12.207,2.9
		c-3.256,1.26-5.688,2.27-7.865,2.27c-2.994,0-4.885-1.639-4.885-3.979c0-1.892,1.639-3.537,4.527-4.081
		c3.529,1.264,7.055,1.906,10.568,1.906c13.391,0,21.799-6.605,21.799-15.555c0-6.789-4.248-11.944-12.205-14.656
		c0.449-0.816,1.094-1.188,1.99-1.188c2.258,0,4.617,2.993,7.859,2.993c2.713,0,4.805-2.069,4.805-4.881
		c0-3.165-2.631-5.605-6.326-5.605c-4.885,0-9.15,2.989-11.125,8.138c-1.82-0.356-3.531-0.543-5.066-0.543
		c-13.477,0-21.887,6.971-21.887,16.091c0,4.62,2.168,8.688,6.326,11.405C257.418,79.667,254.348,83.753,254.348,89.456"/>
	<path fill="#cbcbcb" d="M142.669,77.78c0,7.513-0.095,11.128-4.083,11.128c-2.345,0-4.067-2.255-4.067-6.148
		c0-6.684,2.889-11.308,8.151-13.391V77.78z M116.427,86.379c0,6.333,4.886,10.932,12.216,10.932c5.522,0,10.391-2.519,14.832-7.594
		c1.622,4.706,5.153,7.153,10.4,7.153c4.529,0,9.424-2.71,11.781-5.702l-0.008-0.007c0.417-0.482,0.399-1.211-0.062-1.668
		c-0.476-0.475-1.252-0.463-1.727,0.01c-0.542,0.447-0.7,0.479-1.243,0.479c-2.286,0-3.039-3.154-3.039-9.666V67.759
		c0-5.441-0.372-9.32-3.896-12.68c-3.34-3.068-8.858-4.967-15.825-4.967c-12.567,0-20.349,6.34-20.349,13.936
		c0,3.711,2.356,6.133,5.967,6.133c3.8,0,6.514-2.703,6.514-7.136c0-0.991-0.177-2.538-0.177-4.429c0-2.723,2.258-4.893,5.417-4.893
		c3.984,0,5.44,2.894,5.44,9.231v3.157C125.024,72.904,116.427,77.438,116.427,86.379"/>
	<path fill="#cbcbcb" d="M69.124,95.431h15.39v-0.014c0.704-0.033,1.267-0.616,1.267-1.328c0-0.712-0.562-1.294-1.267-1.307
		c-2.861-0.481-3.981-2.418-3.981-6.32v-20.88c0-5.704,1.079-8.5,4.792-8.5c4.067,0,5.157,2.706,5.157,8.5v29.849h21.427v-0.014
		c0.716,0,1.301-0.568,1.301-1.284c0-0.716-0.585-1.294-1.301-1.294v-0.01c-3.222-0.301-4.434-2.235-4.434-6.367V65.13
		c0-10.051-4.7-14.922-14.369-14.922c-5.885,0-10.585,2.35-14.101,7.054v-6.008c0.005-0.042,0.005-0.097,0.005-0.147
		c0.013-0.441-0.344-0.816-0.789-0.816c-0.098,0-0.188,0.032-0.268,0.055h-0.007h-0.012c-0.081,0.032-0.146,0.065-0.212,0.124
		c-6.422,3.581-17.915,8.538-20.644,9.704l0.808,2.305l3.103,2.195c2.266,1.534,2.541,2.706,2.541,5.15v8.826L69.124,95.431z"/>
	<path fill="#cbcbcb" d="M352.285,30.663c-1.623,1.632-4.6,2.359-9.043,2.359h-36.283c-0.728,0-1.32,0.59-1.32,1.32
		c0,0.717,0.592,1.315,1.32,1.315c4.649,0.553,5.813,2.502,5.813,7.676v41.785c0,5.124-1.152,7.087-5.719,7.643v0.01
		c-0.73,0-1.33,0.591-1.33,1.33c0,0.729,0.6,1.33,1.33,1.33h31.365c0.736,0,1.326-0.601,1.326-1.33c0-0.731-0.59-1.33-1.326-1.33
		c-4.605-0.558-5.748-2.512-5.748-7.652V62.054c6.438,0.409,9.926,2.775,10.836,7.659c0.154,0.794,0.652,1.451,1.459,1.451
		c0.795,0,1.447-0.657,1.447-1.451V52.605c0-0.808-0.652-1.468-1.455-1.468c-0.811,0-1.291,0.59-1.471,1.468
		c-0.996,4.626-4.342,6.457-10.816,6.457v-22.15h1.627c8.787,0,14.705,2.874,19.846,10.175l0.02-0.008
		c0.236,0.531,0.756,0.901,1.369,0.901c0.82,0,1.494-0.675,1.494-1.492c0-0.196-0.039-0.379-0.105-0.558
		C354.973,41.65,353.525,36.479,352.285,30.663"/>
	<path fill="#cbcbcb" d="M189.881,32.589c-0.146,0-0.278,0.038-0.395,0.108c-8.328,3.363-15.671,6.046-22.003,8.076
		c-0.049,0.027-0.508,0.134-0.481,0.649c0.015,0.175,0.214,0.417,0.416,0.6l3.731,3.019c2.17,1.721,2.527,2.455,2.527,5.167v36.254
		c0,4.132-1.211,6.066-4.429,6.377c-0.711,0-1.284,0.577-1.284,1.294c0,0.716,0.572,1.284,1.284,1.284v0.014h25.892
		c0.72,0,1.298-0.582,1.298-1.298c0-0.717-0.579-1.294-1.298-1.294c-3.249-0.311-4.464-2.227-4.464-6.377V33.405
		C190.674,32.958,190.323,32.589,189.881,32.589"/>
	<path fill="#cbcbcb" d="M492.529,92.728c-3.48-0.582-5.381-2.637-7.551-6.438l-12.67-21.708c4.885-6.045,9.486-9.285,14.998-9.852
		c0.701-0.012,1.275-0.598,1.281-1.302c0-0.728-0.57-1.316-1.281-1.326H468.15c-0.709,0-1.291,0.569-1.291,1.278
		c-0.016,0.716,0.559,1.294,1.277,1.316h0.014c1.922,0.273,3.064,1.383,3.064,3.024c0,3.43-3.801,8.213-11.66,14.278V33.405
		c0-0.125-0.023-0.229-0.062-0.33v0.035c-0.119-0.298-0.404-0.521-0.756-0.521c-0.135,0-0.264,0.038-0.373,0.108
		c-8.332,3.363-15.684,6.046-22.01,8.075c-0.047,0.028-0.512,0.135-0.482,0.649c0.016,0.175,0.203,0.417,0.4,0.6l3.74,3.019
		c2.172,1.721,2.535,2.455,2.535,5.167v36.254c0,4.131-1.213,6.066-4.43,6.377c-0.713,0-1.297,0.578-1.297,1.294
		c0,0.716,0.584,1.286,1.297,1.286v0.012h25.887c0.713,0,1.293-0.582,1.293-1.298c0-0.716-0.58-1.294-1.293-1.294
		c-3.242-0.311-4.461-2.227-4.461-6.377v-1.434h0.012V74.44l10.576,20.99h22.398c0.74,0,1.346-0.601,1.346-1.354
		C493.875,93.337,493.27,92.728,492.529,92.728"/>
	<path fill="#cbcbcb" d="M428.004,32.589c-0.145,0-0.279,0.038-0.402,0.108c-8.324,3.363-15.668,6.046-21.996,8.076
		c-0.043,0.027-0.504,0.134-0.477,0.649c0.016,0.175,0.205,0.417,0.41,0.6l3.732,3.019c2.174,1.721,2.525,2.455,2.525,5.167v36.254
		c0,4.132-1.217,6.066-4.43,6.377c-0.711,0-1.289,0.577-1.289,1.294c0,0.716,0.578,1.284,1.289,1.284v0.014h25.897
		c0.703,0,1.289-0.582,1.289-1.298c0-0.717-0.586-1.294-1.289-1.294c-3.246-0.311-4.465-2.227-4.465-6.377V33.405
		C428.801,32.958,428.438,32.589,428.004,32.589"/>
	<path fill="#cbcbcb" d="M378.342,53.545c6.42,0,7.135,6.424,7.135,20.176c0,13.751-0.715,20.253-7.135,20.253
		c-6.514,0-7.057-6.502-7.057-20.253C371.285,59.969,371.828,53.545,378.342,53.545 M378.342,97.311
		c15.557,0,25.766-9.575,25.766-23.59c0-14.024-10.209-23.513-25.766-23.513c-15.559,0-25.684,9.398-25.684,23.513
		C352.658,87.827,362.783,97.311,378.342,97.311"/>
	<path fill="#cbcbcb" d="M19.135,71.161l7.698-21.804l7.497,21.804H19.135z M37.879,24.564c0.452,1.354,0.676,2.586,0.676,3.664
		c0,1.039-0.179,1.845-1.812,3.224c-5.348,3.778-10.319,6.264-14.933,7.364v0.009c-0.543,0.079-0.474,0.302-0.474,0.559
		c0,0.117,0.081,0.336,0.086,0.336c0.052,0.068,0.096,0.141,0.175,0.178c1.507,1.298,2.601,2.829,3.346,4.701L11,82.94
		c-2.32,6.369-4.654,9.301-9.697,9.873C0.614,92.851,0,93.432,0,94.124c0,0.697,0.625,1.448,1.168,1.48h17.925
		c1.087-0.037,1.342-0.792,1.342-1.486c0-0.693-0.483-1.279-1.163-1.33c-3.383-0.395-5.139-2.168-5.139-5.314
		c0-1.449,0.38-3.138,0.841-4.498l2.902-8.555h17.547l3.521,10.463c0.452,1.354,0.724,2.562,0.724,3.641
		c0,2.758-1.73,4.193-5.237,4.338c-0.71,0-1.281,0.666-1.281,1.369c0,0.705,0.571,1.373,1.281,1.373h23.455
		c1.102,0,3.626-0.047,4.913,1.238c0.563,0.564,1.402,2.3,1.993,3.924l8.623,24.172h1.629L31.423,0h-1.628L37.879,24.564z"/>
	</g>
</svg>
